# xmcd
#
# Track frame offsets:
#	150
#	13242
#	32891
#	46913
#	61194
#	76378
#	88204
#	102785
#	114956
#	124206
#	136702
#	152084
#	159477
#	170535
#
# Disc length: 2378 seconds
#
# Revision: 0
# Processed by: cddbd v1.5.1PL0 Copyright (c) Steve Scherf et al.
# Submitted via: EasyCDDAExtractor 4.6.9.1
#
DISCID=ac09480e
DTITLE=Arsen Dedic - Ministarstvo
DYEAR=1900
DGENRE=Chanson
TTITLE0=Seosko groblje II
TTITLE1=Tvoje tijelo-moja kuca
TTITLE2=Covjek bez zvijezde
TTITLE3=Lutka
TTITLE4=Cistim svoj zivot
TTITLE5=Seosko groblje I
TTITLE6=Dva ljubljanska dana
TTITLE7=Stari vuci
TTITLE8=Ratni profiteri
TTITLE9=Daj mi malo
TTITLE10=Ministarstvo straha
TTITLE11=Ruke
TTITLE12=Ivan bez zemlje
TTITLE13=I na kraju malo srece
EXTD=
EXTT0=
EXTT1=
EXTT2=
EXTT3=
EXTT4=
EXTT5=
EXTT6=
EXTT7=
EXTT8=
EXTT9=
EXTT10=
EXTT11=
EXTT12=
EXTT13=
PLAYORDER=
